<svg width="52" height="52" viewBox="0 0 52 52" fill="none" xmlns="http://www.w3.org/2000/svg">
<circle cx="26" cy="26" r="26" fill="#1A1A80"/>
<path d="M30.7664 21.2245L29.003 22.8038L32.8038 26.9026C36.5869 30.9826 36.2868 37.3263 32.1356 41.044C30.1246 42.8451 27.5151 43.7689 24.8027 43.6446C22.0848 43.5207 19.5789 42.3638 17.7462 40.3875L15.37 37.825L18.0177 35.454L20.2503 37.8618C21.4384 39.143 23.063 39.8929 24.825 39.9734C24.9297 39.9782 25.0342 39.9805 25.1383 39.9805C26.7863 39.9805 28.353 39.3856 29.579 38.2874C30.8827 37.1198 31.6461 35.5232 31.7279 33.7915C31.8097 32.0598 31.2005 30.4007 30.0124 29.1194L26.3748 25.1965L26.3675 25.2031L22.7507 21.3021C21.9918 20.4838 21.6026 19.4239 21.6548 18.3178C21.707 17.2117 22.1944 16.1919 23.0274 15.4458C23.8598 14.7003 24.9365 14.3188 26.064 14.3688C27.1895 14.4202 28.2272 14.8992 28.9861 15.7178L31.2189 18.1256L31.2052 18.1381L32.8118 19.871L39 14.329L35.0171 10.0335C32.7555 7.59434 29.6627 6.16652 26.3083 6.01357C22.9567 5.86089 19.7398 7.00044 17.2578 9.22311C14.7756 11.446 13.323 14.4855 13.1673 17.7821C13.0114 21.0787 14.1715 24.2375 16.4331 26.6767L20.2336 30.7755L21.997 29.1963L18.1965 25.0974C16.3638 23.1211 15.424 20.5617 15.55 17.8906C15.6763 15.2199 16.8535 12.7569 18.8642 10.9561C20.8754 9.15519 23.4795 8.23216 26.1976 8.35549C28.9155 8.47933 31.4213 9.63624 33.2538 11.6125L35.63 14.175L32.9823 16.5463L30.7497 14.1385C29.5616 12.8573 27.937 12.1074 26.175 12.0269C24.4135 11.946 22.7247 12.5452 21.421 13.7129C20.1173 14.8805 19.3539 16.4771 19.2721 18.2088C19.1903 19.9405 19.7995 21.5996 20.9876 22.8809L24.625 26.8038L24.6322 26.7972L28.2493 30.6981C29.0082 31.5165 29.3974 32.5764 29.3452 33.6825C29.293 34.7886 28.8056 35.8084 27.9729 36.5542C27.1399 37.3 26.0604 37.6825 24.936 37.6312C23.8105 37.5799 22.7728 37.1009 22.0139 36.2823L19.7811 33.8745L19.7948 33.862L18.1882 32.129L12 37.671L15.9826 41.9665C18.2445 44.4057 21.3373 45.8335 24.6917 45.9865C24.8913 45.9957 25.0903 46 25.2888 46C28.4257 45.9997 31.4081 44.8671 33.7422 42.7767C38.8659 38.1881 39.2359 30.3586 34.5671 25.3234L30.7664 21.2245Z" fill="white"/>
</svg>
