<svg width="185" height="77" viewBox="0 0 185 77" fill="none" xmlns="http://www.w3.org/2000/svg">
<path d="M31.9723 27.0235L28.9681 29.8267L35.4435 37.1022C41.8888 44.3441 41.3775 55.6043 34.305 62.2031C30.879 65.4001 26.4331 67.0398 21.812 66.8191C17.1815 66.5993 12.9122 64.5458 9.78986 61.0379L5.74148 56.4894L10.2524 52.2808L14.056 56.5546C16.0802 58.8289 18.848 60.16 21.85 60.3027C22.0284 60.3114 22.2063 60.3154 22.3838 60.3154C25.1915 60.3154 27.8606 59.2594 29.9494 57.3102C32.1706 55.2376 33.4711 52.4036 33.6105 49.3299C33.7499 46.2562 32.712 43.3112 30.6878 41.037L24.4904 34.0738L24.478 34.0855L18.316 27.1613C17.023 25.7088 16.36 23.8275 16.4489 21.8641C16.5379 19.9008 17.3683 18.0906 18.7874 16.7664C20.2056 15.443 22.0399 14.7659 23.961 14.8547C25.8785 14.9458 27.6464 15.796 28.9393 17.249L32.7434 21.5229L32.7199 21.5451L35.4572 24.621L46 14.784L39.2143 7.15953C35.3612 2.82996 30.092 0.295571 24.3771 0.0240949C18.667 -0.246928 13.1862 1.77577 8.95771 5.72102C4.72873 9.66672 2.25393 15.0618 1.98878 20.9133C1.7232 26.7648 3.69959 32.3715 7.55277 36.7011L14.0277 43.9765L17.0319 41.1734L10.557 33.8979C7.43458 30.39 5.83355 25.847 6.04823 21.1059C6.26335 16.3653 8.26896 11.9935 11.6945 8.797C15.121 5.60047 19.5576 3.96209 24.1885 4.181C28.8189 4.40081 33.0882 6.45433 36.2101 9.96222L40.2585 14.5107L35.7476 18.7197L31.944 14.4459C29.9198 12.1716 27.152 10.8406 24.15 10.6978C21.1489 10.5541 18.2717 11.6178 16.0506 13.6904C13.8294 15.7629 12.5289 18.5969 12.3895 21.6706C12.2501 24.7443 13.288 27.6893 15.3122 29.9635L21.5092 36.9268L21.5216 36.915L27.684 43.8392C28.977 45.2918 29.64 47.1731 29.5511 49.1364C29.4621 51.0997 28.6317 52.9099 27.213 54.2337C25.7939 55.5576 23.9548 56.2365 22.039 56.1454C20.1215 56.0543 18.3536 55.2041 17.0607 53.7511L13.2566 49.4772L13.2801 49.455L10.5428 46.379L0 56.2161L6.78523 63.8405C10.6388 68.1701 15.908 70.7045 21.6229 70.976C21.9629 70.9923 22.302 71 22.6401 71C27.9846 70.9995 33.0656 68.9891 37.0423 65.2786C45.7716 57.1339 46.4019 43.2364 38.4477 34.299L31.9723 27.0235Z" fill="#333333"/>
<path d="M59.2159 68.4545C57.1136 68.4545 55.3002 67.9905 53.7756 67.0625C52.2604 66.125 51.0909 64.8182 50.267 63.142C49.4527 61.4564 49.0455 59.4962 49.0455 57.2614C49.0455 55.0265 49.4527 53.0568 50.267 51.3523C51.0909 49.6383 52.2367 48.303 53.7045 47.3466C55.1818 46.3807 56.9053 45.8977 58.875 45.8977C60.0114 45.8977 61.1335 46.0871 62.2415 46.4659C63.3494 46.8447 64.358 47.4602 65.267 48.3125C66.1761 49.1553 66.9006 50.2727 67.4403 51.6648C67.9801 53.0568 68.25 54.7708 68.25 56.8068V58.2273H51.4318V55.3295H64.8409C64.8409 54.0985 64.5947 53 64.1023 52.0341C63.6193 51.0682 62.928 50.3059 62.0284 49.7472C61.1383 49.1884 60.0871 48.9091 58.875 48.9091C57.5398 48.9091 56.3845 49.2405 55.4091 49.9034C54.4432 50.5568 53.6998 51.4091 53.179 52.4602C52.6581 53.5114 52.3977 54.6383 52.3977 55.8409V57.7727C52.3977 59.4205 52.6818 60.8172 53.25 61.9631C53.8277 63.0994 54.6278 63.9659 55.6506 64.5625C56.6733 65.1496 57.8617 65.4432 59.2159 65.4432C60.0966 65.4432 60.892 65.3201 61.6023 65.0739C62.322 64.8182 62.9422 64.4394 63.4631 63.9375C63.9839 63.4261 64.3864 62.7917 64.6705 62.0341L67.9091 62.9432C67.5682 64.0417 66.9953 65.0076 66.1903 65.8409C65.3854 66.6648 64.3911 67.3087 63.2074 67.7727C62.0237 68.2273 60.6932 68.4545 59.2159 68.4545Z" fill="#333333"/>
<path d="M82.1562 76.6364C80.5369 76.6364 79.1449 76.428 77.9801 76.0114C76.8153 75.6042 75.8447 75.0644 75.0682 74.392C74.3011 73.7292 73.6903 73.0189 73.2358 72.2614L75.9062 70.3864C76.2093 70.7841 76.5928 71.2386 77.0568 71.75C77.5208 72.2708 78.1553 72.7206 78.9602 73.0994C79.7746 73.4877 80.84 73.6818 82.1562 73.6818C83.9176 73.6818 85.3712 73.2557 86.517 72.4034C87.6629 71.5511 88.2358 70.2159 88.2358 68.3977V63.9659H87.9517C87.7055 64.3636 87.3551 64.8561 86.9006 65.4432C86.4555 66.0208 85.8116 66.5369 84.9688 66.9915C84.1354 67.4366 83.0085 67.6591 81.5881 67.6591C79.8267 67.6591 78.2453 67.2424 76.8438 66.4091C75.4517 65.5758 74.3485 64.3636 73.5341 62.7727C72.7292 61.1818 72.3267 59.25 72.3267 56.9773C72.3267 54.7424 72.7197 52.7964 73.5057 51.1392C74.2917 49.4725 75.3854 48.1847 76.7869 47.2756C78.1884 46.357 79.8078 45.8977 81.6449 45.8977C83.0653 45.8977 84.1922 46.1345 85.0256 46.608C85.8684 47.072 86.5123 47.6023 86.9574 48.1989C87.4119 48.786 87.7623 49.2689 88.0085 49.6477H88.3494V46.1818H91.5881V68.625C91.5881 70.5 91.1619 72.0246 90.3097 73.1989C89.4669 74.3826 88.3305 75.2491 86.9006 75.7983C85.4801 76.357 83.8987 76.6364 82.1562 76.6364ZM82.0426 64.6477C83.3873 64.6477 84.5237 64.34 85.4517 63.7244C86.3797 63.1089 87.0852 62.2235 87.5682 61.0682C88.0511 59.9129 88.2926 58.5303 88.2926 56.9205C88.2926 55.3485 88.0559 53.9612 87.5824 52.7585C87.1089 51.5559 86.4081 50.6136 85.4801 49.9318C84.5521 49.25 83.4062 48.9091 82.0426 48.9091C80.6222 48.9091 79.4384 49.2689 78.4915 49.9886C77.554 50.7083 76.8485 51.6742 76.375 52.8864C75.911 54.0985 75.679 55.4432 75.679 56.9205C75.679 58.4356 75.9157 59.7756 76.3892 60.9403C76.8722 62.0956 77.5824 63.0047 78.5199 63.6676C79.4669 64.321 80.6411 64.6477 82.0426 64.6477Z" fill="#333333"/>
<path d="M111.474 59.0795V46.1818H114.827V68H111.474V64.3068H111.247C110.736 65.4148 109.94 66.357 108.861 67.1335C107.781 67.9006 106.418 68.2841 104.77 68.2841C103.406 68.2841 102.194 67.9858 101.134 67.3892C100.073 66.7831 99.2396 65.8741 98.6335 64.6619C98.0275 63.4403 97.7244 61.9015 97.7244 60.0455V46.1818H101.077V59.8182C101.077 61.4091 101.522 62.678 102.412 63.625C103.312 64.572 104.457 65.0455 105.849 65.0455C106.683 65.0455 107.53 64.8324 108.392 64.4062C109.263 63.9801 109.992 63.3267 110.58 62.446C111.176 61.5653 111.474 60.4432 111.474 59.0795Z" fill="#333333"/>
<path d="M120.967 68V46.1818H124.205V49.4773H124.433C124.83 48.3977 125.55 47.5218 126.592 46.8494C127.633 46.1771 128.808 45.8409 130.114 45.8409C130.361 45.8409 130.668 45.8456 131.038 45.8551C131.407 45.8646 131.686 45.8788 131.876 45.8977V49.3068C131.762 49.2784 131.502 49.2358 131.094 49.179C130.697 49.1127 130.275 49.0795 129.83 49.0795C128.77 49.0795 127.823 49.3021 126.989 49.7472C126.165 50.1828 125.512 50.7888 125.029 51.5653C124.556 52.3324 124.319 53.2083 124.319 54.1932V68H120.967Z" fill="#333333"/>
<path d="M135.849 68V46.1818H139.202V68H135.849ZM137.554 42.5455C136.901 42.5455 136.337 42.3229 135.864 41.8778C135.4 41.4328 135.168 40.8977 135.168 40.2727C135.168 39.6477 135.4 39.1127 135.864 38.6676C136.337 38.2225 136.901 38 137.554 38C138.207 38 138.766 38.2225 139.23 38.6676C139.704 39.1127 139.94 39.6477 139.94 40.2727C139.94 40.8977 139.704 41.4328 139.23 41.8778C138.766 42.3229 138.207 42.5455 137.554 42.5455Z" fill="#333333"/>
<path d="M144.717 68V65.4432L157.103 49.5341V49.3068H145.114V46.1818H161.421V48.8523L149.376 64.6477V64.875H161.819V68H144.717Z" fill="#333333"/>
<path d="M175.505 68.4545C173.403 68.4545 171.589 67.9905 170.065 67.0625C168.549 66.125 167.38 64.8182 166.556 63.142C165.742 61.4564 165.335 59.4962 165.335 57.2614C165.335 55.0265 165.742 53.0568 166.556 51.3523C167.38 49.6383 168.526 48.303 169.994 47.3466C171.471 46.3807 173.194 45.8977 175.164 45.8977C176.3 45.8977 177.423 46.0871 178.531 46.4659C179.638 46.8447 180.647 47.4602 181.556 48.3125C182.465 49.1553 183.19 50.2727 183.729 51.6648C184.269 53.0568 184.539 54.7708 184.539 56.8068V58.2273H167.721V55.3295H181.13C181.13 54.0985 180.884 53 180.391 52.0341C179.908 51.0682 179.217 50.3059 178.317 49.7472C177.427 49.1884 176.376 48.9091 175.164 48.9091C173.829 48.9091 172.674 49.2405 171.698 49.9034C170.732 50.5568 169.989 51.4091 169.468 52.4602C168.947 53.5114 168.687 54.6383 168.687 55.8409V57.7727C168.687 59.4205 168.971 60.8172 169.539 61.9631C170.117 63.0994 170.917 63.9659 171.94 64.5625C172.962 65.1496 174.151 65.4432 175.505 65.4432C176.386 65.4432 177.181 65.3201 177.891 65.0739C178.611 64.8182 179.231 64.4394 179.752 63.9375C180.273 63.4261 180.675 62.7917 180.96 62.0341L184.198 62.9432C183.857 64.0417 183.284 65.0076 182.479 65.8409C181.674 66.6648 180.68 67.3087 179.496 67.7727C178.313 68.2273 176.982 68.4545 175.505 68.4545Z" fill="#333333"/>
</svg>
